<!--?xml version="1.0" encoding="UTF-8" standalone="no"?-->
<svg viewBox="0 0 16 16" version="1.1" xmlns="http://www.w3.org/2000/svg" xmlns:xlink="http://www.w3.org/1999/xlink">
    <title>Paperclip</title>
    <defs></defs>
    <g stroke="none" stroke-width="1" fill="none" fill-rule="evenodd">
        <path d="M6.346,16 C5.009,16 4,14.907 4,13.725 L4,3.99799991 C4,1.63391113 5.25378418,0 7.69795109,0 L8.3671875,0 C11.046,0 12,1.56054688 12,3.99799991 L12,11.0050049 L11.046,11.0050049 L11.046,3.99799991 C11.046,2.4140625 10.4089355,1 8.3671875,1 L7.68199992,1 C5.87280273,1 5,2.31750488 5,3.99799991 L5,13.725 C5,14.463 5.448,14.999 6.345,14.999 L7.683,14.999 C8.535,14.999 9.062,14.511 9.062,13.725 L9.062,5.756 C9.062,5.225 8.98100008,5.03984473 7.94300008,4.99084473 C6.88400008,5.04284473 7,5.262 7,5.756 L6.99999995,10.0100098 L5.99899995,10.0100098 L5.999,5.756 C5.999,4.635 6.635,4.06 7.943,3.998 C9.249,4.058 10,4.616 10,5.756 L10,13.725 C10,14.947 8.966,16 7.682,16 L6.346,16 Z" fill="#434343" class="si-glyph-fill"></path>
    </g>
</svg>